<svg width="16" height="16" viewBox="0 0 16 16" fill="none" xmlns="http://www.w3.org/2000/svg">
<path d="M11.3317 13.9973V12.6646C11.3317 11.9576 11.0509 11.2797 10.551 10.7798C10.0512 10.2799 9.37321 9.9991 8.66629 9.9991H3.33538C2.62845 9.9991 1.95049 10.2799 1.45062 10.7798C0.950746 11.2797 0.669922 11.9576 0.669922 12.6646V13.9973" stroke="#18171C" stroke-width="1.13" stroke-linecap="round" stroke-linejoin="round"/>
<path d="M6.0009 7.33364C7.47299 7.33364 8.66636 6.14028 8.66636 4.66819C8.66636 3.1961 7.47299 2.00273 6.0009 2.00273C4.52881 2.00273 3.33545 3.1961 3.33545 4.66819C3.33545 6.14028 4.52881 7.33364 6.0009 7.33364Z" stroke="#18171C" stroke-width="1.13" stroke-linecap="round" stroke-linejoin="round"/>
<path d="M15.3299 13.9973V12.6646C15.3295 12.074 15.1329 11.5003 14.7711 11.0335C14.4092 10.5668 13.9026 10.2334 13.3308 10.0857" stroke="#18171C" stroke-width="1.13" stroke-linecap="round" stroke-linejoin="round"/>
<path d="M10.6653 2.08937C11.2386 2.23617 11.7468 2.56962 12.1097 3.03715C12.4726 3.50467 12.6696 4.07969 12.6696 4.67153C12.6696 5.26337 12.4726 5.83839 12.1097 6.30591C11.7468 6.77344 11.2386 7.10689 10.6653 7.25369" stroke="#18171C" stroke-width="1.13" stroke-linecap="round" stroke-linejoin="round"/>
</svg>
